<svg xmlns="http://www.w3.org/2000/svg" viewBox="0 0 512 512" role="img" aria-labelledby="title desc">
  <title id="title">Sol de Soter</title>
  <desc id="desc">Ícone com um gato dentro de um sol estilizado.</desc>
  <rect width="512" height="512" rx="64" fill="#efe8c7"/>
  <g transform="translate(256 208)">
    <circle r="132" fill="#14a89a" stroke="#101728" stroke-width="12"/>
    <g stroke="#efe8c7" stroke-width="6" stroke-linecap="round" opacity="0.9">
      <line x1="0" y1="-108" x2="0" y2="-78"/>
      <line x1="53" y1="-94" x2="39" y2="-67"/>
      <line x1="93" y1="-54" x2="67" y2="-39"/>
      <line x1="108" y1="0" x2="78" y2="0"/>
      <line x1="93" y1="54" x2="67" y2="39"/>
      <line x1="53" y1="94" x2="39" y2="67"/>
      <line x1="0" y1="108" x2="0" y2="78"/>
      <line x1="-53" y1="94" x2="-39" y2="67"/>
      <line x1="-93" y1="54" x2="-67" y2="39"/>
      <line x1="-108" y1="0" x2="-78" y2="0"/>
      <line x1="-93" y1="-54" x2="-67" y2="-39"/>
      <line x1="-53" y1="-94" x2="-39" y2="-67"/>
    </g>
    <g fill="#101728">
      <path d="M-70 100v-152c0-25 20-45 45-45h18c34 0 61 27 61 61v136h-124z"/>
      <path d="M-53-100l25-36 25 38z"/>
      <path d="M-5-95l24-36 23 36z"/>
      <ellipse cx="-26" cy="-35" rx="16" ry="9" fill="#efe8c7"/>
    </g>
    <g stroke="#efe8c7" stroke-width="6" stroke-linecap="round">
      <line x1="-51" y1="-10" x2="-90" y2="-14"/>
      <line x1="-51" y1="-2" x2="-92" y2="-2"/>
      <line x1="-51" y1="6" x2="-88" y2="10"/>
    </g>
  </g>
  <g stroke="#101728" stroke-width="14" stroke-linecap="round" transform="translate(256 208)">
    <path d="M0 -186v-28"/>
    <path d="M74 -170l12 -26"/>
    <path d="M136 -128l24 -18"/>
    <path d="M170 -60l28 -4"/>
    <path d="M170 60l28 4"/>
    <path d="M136 128l24 18"/>
    <path d="M74 170l12 26"/>
    <path d="M0 186v28"/>
    <path d="M-74 170l-12 26"/>
    <path d="M-136 128l-24 18"/>
    <path d="M-170 60l-28 4"/>
    <path d="M-170 -60l-28 -4"/>
    <path d="M-136 -128l-24 -18"/>
    <path d="M-74 -170l-12 -26"/>
  </g>
</svg>
